<svg width="76" height="24" viewBox="0 0 76 24" fill="none" xmlns="http://www.w3.org/2000/svg">
<rect x="0.5" y="0.5" width="33" height="23" rx="3.5" fill="white"/>
<path fill-rule="evenodd" clip-rule="evenodd" d="M17.179 16.8292C15.9949 17.8273 14.459 18.4298 12.7807 18.4298C9.03582 18.4298 6 15.4301 6 11.7298C6 8.02948 9.03582 5.02979 12.7807 5.02979C14.459 5.02979 15.9949 5.63228 17.179 6.63033C18.363 5.63228 19.8989 5.02979 21.5773 5.02979C25.3221 5.02979 28.358 8.02948 28.358 11.7298C28.358 15.4301 25.3221 18.4298 21.5773 18.4298C19.8989 18.4298 18.363 17.8273 17.179 16.8292Z" fill="#ED0006"/>
<path fill-rule="evenodd" clip-rule="evenodd" d="M17.179 16.8292C18.6369 15.6003 19.5614 13.7717 19.5614 11.7298C19.5614 9.68783 18.6369 7.85923 17.179 6.63032C18.363 5.63228 19.8989 5.02979 21.5772 5.02979C25.3221 5.02979 28.3579 8.02948 28.3579 11.7298C28.3579 15.4301 25.3221 18.4298 21.5772 18.4298C19.8989 18.4298 18.363 17.8273 17.179 16.8292Z" fill="#F9A000"/>
<path fill-rule="evenodd" clip-rule="evenodd" d="M17.179 16.8292C18.6369 15.6003 19.5614 13.7717 19.5614 11.7298C19.5614 9.68787 18.6369 7.85927 17.179 6.63037C15.7211 7.85927 14.7966 9.68787 14.7966 11.7298C14.7966 13.7717 15.7211 15.6003 17.179 16.8292Z" fill="#FF5E00"/>
<rect x="0.5" y="0.5" width="33" height="23" rx="3.5" stroke="#F2F4F7"/>
<rect x="42.5" y="0.5" width="33" height="23" rx="3.5" fill="white"/>
<path d="M58.8832 8.14131L57.2798 15.8785H55.3404L56.944 8.14131H58.8832ZM67.0422 13.1373L68.063 10.2318L68.6504 13.1373H67.0422ZM69.2067 15.8785H71L69.4334 8.14131H67.7792C67.4064 8.14131 67.0921 8.3644 66.953 8.70845L64.0431 15.8785H66.0799L66.4842 14.723H68.9719L69.2067 15.8785ZM64.1441 13.3526C64.1526 11.3106 61.4092 11.1975 61.4276 10.2851C61.4335 10.0079 61.6898 9.71256 62.2499 9.63703C62.5276 9.60014 63.2939 9.57021 64.1625 9.98334L64.5022 8.34195C64.0357 8.16776 63.4353 8 62.6883 8C60.7711 8 59.4224 9.0511 59.4116 10.5574C59.3993 11.6714 60.375 12.2924 61.1086 12.6635C61.865 13.0427 62.1184 13.2858 62.1147 13.6246C62.1094 14.1437 61.5116 14.3736 60.9549 14.3823C59.9793 14.3979 59.4138 14.1101 58.9632 13.8933L58.6111 15.5895C59.065 15.8039 59.9013 15.9904 60.7672 16C62.8054 16 64.1381 14.9613 64.1441 13.3526ZM56.1121 8.14131L52.9699 15.8785H50.9202L49.3737 9.70368C49.28 9.32397 49.1982 9.1844 48.9131 9.02395C48.4468 8.76257 47.6769 8.51807 47 8.36597L47.0459 8.14131H50.3457C50.7661 8.14131 51.1442 8.43001 51.2405 8.9298L52.0574 13.4074L54.0747 8.14131H56.1121Z" fill="#1434CB"/>
<rect x="42.5" y="0.5" width="33" height="23" rx="3.5" stroke="#F2F4F7"/>
</svg>
